<svg width="40" height="30" viewBox="0 0 40 30" fill="none" xmlns="http://www.w3.org/2000/svg">
<path d="M14.3199 22.1431C11.543 20.3085 8.76604 20.4365 8.72397 20.4365C8.38737 20.4791 8.09284 20.2231 8.05077 19.8818C8.00869 19.5405 8.26114 19.2418 8.59774 19.1991C8.63982 19.1991 11.7954 18.9005 14.7827 20.9485C14.909 21.0338 15.1193 20.9485 15.1193 20.8205C15.6663 17.1511 11.8796 14.4631 7.41964 14.2498C4.51648 14.0791 2.74933 13.3965 1.73954 12.6711C1.02426 12.2018 0.0986181 12.6711 0.0144684 13.5671C-0.448355 23.7645 10.3228 28.0738 13.6467 23.9778C14.951 24.9165 16.2554 26.4098 17.0969 28.7565C17.2231 29.1405 17.6018 29.3538 17.9804 29.3538C18.1487 29.3538 18.275 29.3111 18.4433 29.2258C18.864 29.0125 18.9902 28.4578 18.864 28.0311C17.728 25.0445 16.0029 23.2525 14.3199 22.1431Z" fill="#FF6E00"/>
<path d="M18.9061 11.9031C18.6115 11.4765 18.4012 11.2631 18.4012 11.2631C18.1908 11.0071 18.1908 10.6231 18.4012 10.4098C18.6536 10.1538 19.0323 10.1538 19.2427 10.4098C19.3689 10.5378 21.3885 12.6711 22.1458 16.7245C22.1879 16.8525 22.3141 16.9378 22.4403 16.8951C25.9326 15.1885 25.7643 10.3671 23.1135 6.52713C21.4306 4.09513 20.9257 2.26046 20.8415 1.02313C20.7994 0.169796 19.8317 -0.299537 19.1164 0.212463C10.9118 6.01513 14.0675 17.2365 19.2847 17.4925C19.5372 18.9005 19.6213 20.6498 19.3268 22.6978C19.2427 23.1671 19.4951 23.6365 19.9159 23.8071C20 23.8498 20.1262 23.8498 20.2104 23.8498C20.6732 23.8498 21.0519 23.5085 21.136 23.0391C22.0617 17.0658 20.1262 13.4818 18.9061 11.9031Z" fill="#FF6E00"/>
<path d="M39.9855 13.5245C39.9434 12.6711 38.9757 12.1591 38.2604 12.6285C37.2085 13.3538 35.4835 14.0365 32.5803 14.2071C28.1204 14.4205 24.3336 17.1511 24.8806 20.8205C24.9227 20.9911 25.091 21.0338 25.2172 20.9485C28.2045 18.9005 31.3601 19.1991 31.4022 19.1991C31.7388 19.2418 31.9913 19.5405 31.9492 19.8818C31.9071 20.2231 31.6126 20.4791 31.276 20.4365C31.2339 20.4365 31.0656 20.4365 30.8132 20.4365C29.8454 20.4365 27.7838 20.6071 25.4276 22.3138C23.7867 23.4231 22.2299 25.2151 21.178 28.0738C21.0097 28.5005 21.178 29.0551 21.5988 29.2685C21.725 29.3538 21.8933 29.3965 22.0616 29.3965C22.4403 29.3965 22.7769 29.1405 22.9452 28.7991C23.8287 26.4525 25.091 24.9591 26.3953 23.9778C29.6351 28.0738 40.4483 23.7645 39.9855 13.5245Z" fill="#FF6E00"/>
</svg>
